<svg width="32" height="32" viewBox="0 0 32 32" fill="none" xmlns="http://www.w3.org/2000/svg">
<path fill-rule="evenodd" clip-rule="evenodd" d="M21.5236 20.7716L29.2906 28.5387C29.4921 28.7474 29.4892 29.0791 29.2841 29.2842C29.0789 29.4894 28.7473 29.4923 28.5386 29.2907L20.7716 21.5236C16.6848 25.2027 10.4106 24.9559 6.62549 20.9669C2.84037 16.978 2.92269 10.6996 6.81109 6.8112C10.6995 2.92285 16.978 2.84054 20.967 6.62561C24.956 10.4107 25.2029 16.6848 21.5236 20.7716ZM4.98363 14.0243C4.98363 19.0173 9.0313 23.0649 14.0244 23.0649C19.015 23.0591 23.0592 19.0149 23.0651 14.0243C23.0651 9.03132 19.0174 4.9837 14.0244 4.9837C9.0313 4.9837 4.98363 9.03132 4.98363 14.0243Z" fill="black"/>
</svg>
